<svg width="877.56299" height="131" xmlns="http://www.w3.org/2000/svg" style="vector-effect: non-scaling-stroke;" stroke="null">
 <defs style="vector-effect: non-scaling-stroke;" stroke="null">
  <clipPath style="vector-effect: non-scaling-stroke;" stroke="null" clipPathUnits="userSpaceOnUse" id="clipPath18">
   <path style="vector-effect: non-scaling-stroke;" stroke="null" d="m3.287081,841.89l1516.081,0l0,-841.89l-1516.081,0l0,841.89z" id="path16"/>
  </clipPath>
 </defs>
 <g stroke="null">
  <rect stroke="null" fill="none" id="canvas_background" height="133" width="879.56299" y="-1" x="-1"/>
 </g>
 <g stroke="null">
  <metadata stroke="null" transform="translate(4.3827738761901855,0) matrix(0.4563320279121399,0,0,0.4563320279121399,-15.295583165956401,-28.377022426770367) " id="metadata8"/>
  <g id="svg_2">
   <g transform="matrix(0.6084426886717856,0,0,-0.6084426886717856,-12.912809380568433,483.8648055451647) " stroke="null" id="g20">
    <path fill="#FFFFFF" fill-rule="nonzero" d="m1246.287691,749.376009c5.785,0.333 11.57,0.666 17.355,1c0.499,0.029 0.997,0.075 1.496,0.1c8.301,0.428 16.601,0.878 24.904,1.275c7.636,0.364 15.272,0.718 22.911,0.991c8.971,0.32 17.943,0.678 26.918,0.777c9.818,0.107 19.563,1.057 29.336,1.824c6.961,0.546 13.987,0.297 20.984,0.322c9.495,0.035 18.992,0.016 28.486,-0.038c1.484,-0.008 3.403,0.624 4.076,-1.943c-1.775,-1.499 -3.982,-1.626 -6.001,-1.978c-11.58,-2.019 -23.173,-3.974 -34.78,-5.828c-3.762,-0.601 -7.579,-1.129 -11.376,-1.183c-13.829,-0.198 -27.663,-0.035 -41.49,-0.291c-12.292,-0.227 -24.577,-0.83 -36.918,-1.778c3.313,-0.285 6.62,-0.719 9.939,-0.82c6.161,-0.189 12.331,-0.094 18.492,-0.279c9.809,-0.295 19.62,-0.607 29.418,-1.128c9.119,-0.484 18.245,-1.032 27.327,-1.949c10.884,-1.099 21.758,-2.406 32.574,-4.032c6.855,-1.031 13.591,-2.839 20.394,-4.236c2.916,-0.599 5.856,-1.093 8.802,-1.531c1.65,-0.245 3.201,-0.547 4.59,-2.229c-1.216,-0.652 -2.127,-1.418 -3.159,-1.651c-11.891,-2.699 -23.862,-4.09 -36.075,-2.452c-7.234,0.971 -14.54,1.412 -21.775,2.378c-11.695,1.562 -23.427,2.559 -35.211,3.059c-4.641,0.198 -9.269,0.667 -13.909,0.889c-8.136,0.388 -16.277,0.689 -24.415,1.008c-1.303,0.051 -2.609,0.007 -3.978,-0.704c4.569,-0.76 9.121,-1.654 13.711,-2.258c15.448,-2.031 30.907,-3.976 46.367,-5.921c13.67,-1.72 27.111,-4.66 40.51,-7.757c6.604,-1.526 13.105,-3.533 19.591,-5.527c2.797,-0.86 5.318,-2.4 7.605,-5.24c-1.51,-0.237 -2.419,-0.497 -3.331,-0.505c-9.148,-0.085 -18.255,0.541 -27.334,1.659c-9.055,1.116 -18.131,2.089 -27.174,3.301c-7.061,0.946 -14.079,2.218 -21.131,3.244c-6.722,0.979 -13.458,1.862 -20.197,2.716c-3.122,0.395 -6.263,0.65 -9.401,0.906c-0.741,0.06 -1.503,-0.13 -3.331,-0.312c7.948,-2.008 14.838,-3.719 21.712,-5.493c14.768,-3.811 29.535,-7.633 44.288,-11.506c2.243,-0.588 4.394,-1.518 6.612,-2.212c4.108,-1.283 8.274,-2.391 12.337,-3.797c3.244,-1.122 6.372,-2.579 9.553,-3.888c-0.031,-0.361 -0.062,-0.721 -0.093,-1.082c-1.165,-0.219 -2.321,-0.558 -3.496,-0.641c-13.247,-0.932 -26.154,1.141 -38.962,4.315c-9.324,2.31 -18.749,4.218 -28.056,6.592c-5.125,1.307 -10.098,3.212 -15.143,4.837c-10.422,3.355 -20.775,6.947 -31.284,9.997c-14.682,4.26 -29.136,9.105 -43.277,14.914c-15.852,6.512 -32.201,11.258 -49.068,14.467c-14.598,2.776 -29.207,4.463 -44.061,3.708c-4.31,-0.219 -8.615,-0.701 -12.925,-0.74c-5.964,-0.053 -11.904,0.18 -17.885,0.693c-7.551,0.648 -15.246,-0.303 -22.874,-0.658c-6.469,-0.302 -12.928,-0.864 -19.399,-1.075c-5.658,-0.184 -11.345,0.25 -16.987,-0.109c-7.609,-0.483 -15.21,-1.289 -22.772,-2.28c-7.88,-1.032 -15.697,-2.542 -23.565,-3.674c-9.51,-1.368 -19.031,-2.678 -28.577,-3.756c-3.031,-0.342 -6.206,-0.757 -9.674,0.324c1.346,2.11 3.299,2.734 5.071,3.297c12.816,4.072 25.765,7.569 39.156,9.283c10.87,1.391 21.754,2.466 32.706,2.999c9.616,0.469 19.24,1.046 28.815,2.027c13.85,1.418 27.699,2.968 41.467,5.014c6.685,0.994 13.198,3.192 19.764,4.943c3.686,0.983 7.341,2.101 10.971,3.28c2.619,0.851 5.181,0.556 8.653,0.398c-1.077,-1.307 -1.485,-2.174 -2.166,-2.572c-5.676,-3.312 -12.159,-4.316 -18.308,-6.28c-4.585,-1.464 -9.173,-2.917 -13.73,-4.462c-1.036,-0.352 -1.949,-1.066 -2.775,-2.325c2.41,0 4.822,-0.07 7.229,0.012c7.974,0.274 15.953,0.506 23.92,0.936c8.284,0.447 16.555,1.113 24.834,1.662c1.328,0.089 2.664,0.071 3.997,0.103c13.803,0.328 27.46,1.881 40.983,4.713c13.786,2.886 27.643,5.444 41.4,8.455c8.41,1.842 16.732,4.125 25.019,6.476c6.054,1.718 11.988,3.857 17.967,5.836c1.386,0.459 2.741,1.219 4.193,-0.18c-0.865,-2.499 -3.165,-3.254 -5.153,-4.331c-10.302,-5.583 -21.316,-9.279 -32.694,-11.815c-12.939,-2.885 -25.961,-5.404 -38.941,-8.107c-1.269,-0.264 -2.5,-0.708 -3.748,-1.069c0.056,-0.369 0.11,-0.738 0.166,-1.108" id="path22"/>
   </g>
   <g transform="matrix(0.6084426886717856,0,0,-0.6084426886717856,-12.912809380568433,483.8648055451647) " stroke="null" id="g24">
    <path fill="#FFFFFF" fill-rule="nonzero" d="m78.752481,740.677156c1.382,2.166 2.896,2.021 4.368,1.606c13.078,-3.695 26.572,-3.819 39.977,-4.812c8.602,-0.638 17.169,-1.747 25.754,-2.627c3.631,-0.373 7.263,-0.763 10.903,-1.038c6.132,-0.462 12.276,-0.779 18.406,-1.265c10.921,-0.866 21.824,-1.996 32.757,-2.655c6.39,-0.385 12.821,-0.07 19.375,0.563c-0.694,0.341 -1.375,0.949 -2.084,0.982c-6.243,0.292 -12.029,2.465 -17.796,4.492c-10.809,3.798 -21.597,7.695 -32.202,12.02c-6.285,2.563 -12.255,5.929 -18.263,9.129c-1.974,1.052 -3.622,2.718 -6.341,4.813c2.134,0.394 3.232,0.946 4.085,0.688c2.53,-0.764 5.049,-1.675 7.418,-2.841c6.273,-3.088 12.584,-5.978 19.432,-7.657c3.529,-0.865 6.887,-2.417 10.343,-3.598c8.947,-3.058 18.029,-5.504 27.407,-6.971c5.71,-0.893 11.323,-2.502 16.916,-4.022c8.968,-2.436 18.022,-4.38 27.209,-5.794c6.381,-0.983 12.698,-2.375 19.051,-3.538c2.605,-0.476 5.22,-1.061 7.85,-1.194c5.954,-0.302 11.781,-1.553 17.807,-1.559c18.64,-0.016 37.279,-0.517 55.919,-0.812c2.982,-0.048 5.967,-0.007 9.094,0.761c-1.307,0.441 -2.619,0.868 -3.92,1.325c-4.069,1.431 -8.177,2.765 -12.184,4.353c-2.273,0.901 -4.441,2.157 -5.883,5.479c3.669,-0.953 6.718,-1.485 9.578,-2.533c10.624,-3.893 21.617,-6.469 32.605,-8.945c5.129,-1.156 10.562,-1.082 15.868,-1.319c11.3,-0.505 22.609,-0.821 33.911,-1.27c6.644,-0.263 13.284,-0.618 19.924,-0.966c5.64,-0.295 11.285,-0.553 16.914,-1.004c2.082,-0.167 4.123,-0.84 6.93,-1.443c-1.2,-1.436 -1.716,-2.509 -2.567,-2.993c-3.471,-1.97 -7.051,-3.262 -11.208,-3.677c-12.145,-1.213 -24.284,-0.672 -36.42,-0.583c-10.475,0.077 -20.961,0.406 -31.415,1.065c-8.76,0.552 -17.469,1.852 -26.22,2.604c-4.308,0.37 -8.657,0.246 -12.988,0.35c-13.306,0.321 -26.618,0.488 -39.915,1.016c-9.952,0.395 -19.883,1.3 -29.828,1.891c-6.301,0.375 -12.616,0.516 -18.916,0.908c-4.137,0.257 -8.275,0.657 -12.385,1.201c-9.618,1.272 -19.222,1.227 -28.828,-0.03c-5.092,-0.667 -10.22,-1.169 -15.255,-2.144c-5.548,-1.074 -10.758,-3.148 -15.742,-5.943c-3.738,-2.096 -7.816,-3.625 -11.827,-5.189c-5.883,-2.292 -11.86,-4.278 -16.887,-8.376c-1.612,-1.314 -3.814,-2.039 -5.86,-2.659c-12.376,-3.751 -24.787,-7.386 -37.182,-11.076c-6.036,-1.797 -12.045,-3.685 -18.098,-5.424c-2.219,-0.638 -4.536,-0.934 -6.796,-1.437c-10.985,-2.451 -21.922,-5.147 -32.967,-7.282c-5.457,-1.055 -11.068,-1.901 -17.813,-1.341c1.529,1.198 2.162,1.84 2.918,2.263c8.092,4.534 17.061,6.456 25.985,8.313c16.234,3.378 32.568,6.269 48.559,10.76c5.245,1.473 10.606,2.536 15.837,4.391c-4.08,-0.419 -8.162,-0.815 -12.239,-1.265c-4.778,-0.526 -9.552,-1.088 -14.326,-1.656c-3.622,-0.431 -7.241,-0.892 -10.86,-1.344c-2.134,-0.267 -4.26,-0.714 -6.399,-0.782c-7.326,-0.232 -14.626,-0.787 -21.629,-3.03c-5.612,-1.796 -11.482,-1.672 -17.151,-2.893c-1.451,-0.312 -2.859,-0.817 -4.299,-1.18c-2.72,-0.688 -5.452,-1.331 -8.176,-2.004c-3.054,-0.756 -6.115,-1.49 -9.155,-2.299c-1.864,-0.497 -3.694,-1.118 -5.539,-1.683c-0.15,0.301 -0.3,0.602 -0.451,0.903c0.944,0.782 1.779,1.791 2.852,2.3c2.697,1.279 5.416,2.646 8.276,3.423c16.474,4.474 32.845,9.42 49.716,12.251c11.447,1.922 22.944,3.553 34.425,5.272c9.346,1.399 18.705,2.713 28.049,4.126c1.285,0.194 2.517,0.741 3.782,1.6c-2.973,0 -5.949,0.088 -8.917,-0.023c-3.315,-0.125 -6.62,-0.545 -9.935,-0.637c-13.13,-0.366 -26.198,-1.5 -39.251,-2.935c-8.089,-0.889 -16.214,-1.452 -24.31,-2.283c-8.088,-0.83 -16.152,-1.904 -24.244,-2.679c-3.059,-0.292 -6.169,-0.047 -9.472,-0.047c2.976,2.958 6.261,3.751 10.131,3.951c5.445,0.282 10.846,1.433 16.264,2.23c8.529,1.254 17.035,2.694 25.589,3.742c11.527,1.411 23.082,2.614 34.64,3.737c9.255,0.899 18.534,1.55 27.803,2.306c5.624,0.459 11.248,0.908 16.858,1.361c-1.513,1.652 -3.597,1.423 -5.549,1.422c-17.995,-0.008 -35.991,0.04 -53.985,-0.139c-12.976,-0.13 -25.95,-0.567 -38.924,-0.907c-1.816,-0.047 -3.626,-0.329 -5.44,-0.489c-0.99,-0.088 -1.986,-0.241 -2.974,-0.202c-6.803,0.266 -13.603,0.588 -20.406,0.863c-2.129,0.087 -4.354,-0.223 -6.243,2.138c1.025,0.336 1.84,0.8 2.679,0.85c6.473,0.381 12.948,0.716 19.425,1.002c9.475,0.418 18.952,0.797 28.429,1.168c8.809,0.344 17.617,0.806 26.429,0.95c22.976,0.376 45.955,0.606 68.932,0.891c1.147,0.014 2.295,0.002 3.482,0.7c-4.149,0.411 -8.298,0.825 -12.447,1.231c-3.965,0.387 -7.93,0.778 -11.896,1.146c-10.903,1.008 -21.816,1.909 -32.707,3.031c-11.55,1.191 -23.144,1.827 -34.662,3.527c-7.264,1.072 -14.402,2.281 -21.339,4.688c-1.388,0.481 -2.918,0.552 -4.382,0.818c-1.905,0.346 -3.9,0.455 -5.764,1.894" id="path26"/>
   </g>
   <g transform="matrix(0.6084426886717856,0,0,-0.6084426886717856,-12.912809380568433,483.8648055451647) " stroke="null" id="g28">
    <path fill="#FFFFFF" fill-rule="nonzero" d="m831.104952,679.549776c3.592,1.212 7.155,2.518 10.779,3.623c20.153,6.142 40.388,11.971 60.949,16.635c13.909,3.155 27.807,6.319 41.999,7.94c9.061,1.035 18.125,2.078 27.206,2.909c12.391,1.135 24.799,2.098 37.206,3.082c8.936,0.709 17.878,1.372 26.821,1.982c10.608,0.725 21.237,1.192 31.829,2.092c14.925,1.268 29.856,2.092 44.837,1.856c1.129,-0.018 2.256,-0.153 3.372,-0.582c-3.256,-0.446 -6.5,-1.017 -9.768,-1.313c-8.93,-0.808 -17.882,-1.384 -26.804,-2.267c-11.549,-1.144 -23.074,-2.528 -34.617,-3.748c-7.587,-0.801 -15.202,-1.37 -22.776,-2.269c-9.215,-1.093 -18.415,-2.332 -27.596,-3.676c-11.154,-1.634 -22.319,-3.243 -33.411,-5.243c-8.145,-1.468 -16.151,-3.692 -24.272,-5.316c-10.234,-2.047 -20.507,-3.917 -30.792,-5.698c-11.272,-1.951 -22.566,-3.774 -33.868,-5.54c-7.863,-1.229 -15.754,-2.269 -23.632,-3.392c-3.774,-0.538 -7.543,-1.113 -11.324,-1.589c-1.957,-0.246 -3.937,-0.312 -5.906,-0.46c-0.077,0.325 -0.154,0.649 -0.232,0.974" id="path30"/>
   </g>
   <g transform="matrix(0.6084426886717856,0,0,-0.6084426886717856,-12.912809380568433,483.8648055451647) " stroke="null" id="g32">
    <path fill="#FFFFFF" fill-rule="nonzero" d="m972.882356,729.594697c-1.891,-2.608 -3.884,-3.394 -5.955,-4.005c-4.61,-1.362 -9.26,-2.595 -13.85,-4.023c-12.974,-4.038 -25.875,-8.322 -38.9,-12.185c-16.052,-4.762 -32.184,-9.253 -48.311,-13.753c-12.288,-3.43 -24.591,-6.813 -36.954,-9.958c-4.139,-1.054 -6.213,-4.181 -8.624,-7.048c-1.189,-1.415 -0.879,-3.145 0.094,-4.669c2.578,-4.043 1.1,-7.378 -2.007,-10.186c-3.241,-2.929 -5.892,-6.254 -8.278,-9.902c-1.517,-2.321 -3.482,-4.475 -6.526,-5.055c-1.375,1.004 -1.43,2.392 -0.65,3.504c1.788,2.546 3.732,4.995 5.768,7.35c2.572,2.98 5.297,5.827 8.177,8.972c-1.004,0.872 -1.608,1.707 -2.418,2.035c-1.638,0.664 -2.805,1.647 -3.522,3.276c-1.09,2.478 -3.345,3.747 -5.681,4.54c-5.39,1.831 -10.932,2.772 -16.647,1.606c-0.809,-0.166 -1.644,-0.391 -2.45,-0.34c-6.271,0.394 -12.538,0.85 -19.983,1.368c6.472,0.916 11.854,1.583 17.203,2.452c15.04,2.442 30.126,4.66 45.08,7.556c12.346,2.391 24.529,5.625 36.786,8.478c0.485,0.113 1.003,0.102 1.476,0.246c11.566,3.514 23.086,7.182 34.7,10.526c11.303,3.255 22.718,6.119 34.049,9.277c4.781,1.332 9.459,3.031 14.212,4.47c6.184,1.871 12.381,3.704 18.609,5.421c1.204,0.331 2.576,0.047 4.602,0.047" id="path34"/>
   </g>
   <g transform="matrix(0.6084426886717856,0,0,-0.6084426886717856,-12.912809380568433,483.8648055451647) " stroke="null" id="g36">
    <path fill="#FFFFFF" fill-rule="nonzero" d="m792.885286,646.079561c-1.416,-1.767 -3.175,-2.797 -5.206,-3.628c-5.141,-2.102 -9.792,-4.847 -12.804,-9.844c-0.808,-1.341 -2.396,-2.241 -3.699,-3.25c-1.705,-1.322 -3.529,-2.492 -5.218,-3.835c-2.297,-1.825 -4.129,-3.922 -3.37,-7.212c0.338,-1.466 -0.356,-2.53 -1.36,-3.531c-1.993,-1.985 -3.928,-4.031 -5.874,-6.063c-1.15,-1.2 -2.428,-2.314 -3.381,-3.657c-1.884,-2.659 -1.607,-3.704 1.045,-5.636c0.663,-0.483 1.263,-1.054 1.872,-1.608c0.105,-0.095 0.111,-0.301 0.285,-0.818c-4.269,-0.86 -8.405,-0.879 -12.441,0.728c-2.65,1.055 -4.163,3.291 -5.066,5.863c-1.475,4.199 -2.705,8.485 -4.23,12.664c-0.336,0.922 -1.34,1.844 -2.264,2.264c-3.312,1.502 -6.885,2.494 -10.056,4.231c-4.165,2.283 -8.207,4.874 -11.991,7.743c-2.62,1.985 -2.526,2.565 -3.356,6.265c2.616,-2.223 5.155,-4.613 7.931,-6.683c3.805,-2.838 8.337,-4.144 12.919,-4.884c7.075,-1.14 14.21,-1.293 21.313,0.033c3.991,0.745 6.624,2.837 7.38,7.03c0.676,3.748 3.072,6.589 5.388,9.419c1.071,1.307 2.447,2.243 4.325,1.928c2.145,-2.285 -1.261,-3.352 -1.24,-4.991c2.32,-1.471 4.47,-2.835 6.84,-4.338c1.749,1.371 3.559,3.131 2.926,6.34c-0.141,0.716 0.65,1.98 1.366,2.44c5.299,3.403 10.981,5.37 17.396,3.979c0.104,-0.023 0.163,-0.258 0.57,-0.949" id="path38"/>
   </g>
   <g transform="matrix(0.6084426886717856,0,0,-0.6084426886717856,-12.912809380568433,483.8648055451647) " stroke="null" id="g40">
    <path fill="#FFFFFF" fill-rule="nonzero" d="m740.156282,681.890108c-2.182,-0.409 -4.35,-1.065 -6.548,-1.183c-7.959,-0.429 -15.934,-0.572 -23.891,-1.037c-4.289,-0.251 -8.545,-1.01 -12.83,-1.39c-1.922,-0.171 -3.892,-0.115 -5.814,0.088c-2.951,0.311 -5.883,0.814 -8.816,1.284c-1.132,0.182 -2.252,0.46 -3.362,0.755c-2.081,0.552 -4.122,1.495 -6.229,1.667c-9.313,0.756 -17.837,4.965 -27.071,6.01c-15.41,1.743 -29.747,7.889 -44.84,10.958c-9.567,1.946 -19,4.834 -28.65,6.006c-7.579,0.92 -14.973,2.769 -22.55,3.513c-1.645,0.162 -3.363,0.154 -3.835,2.927c1.502,0 2.784,0.139 4.026,-0.023c7.385,-0.961 14.777,-1.884 22.135,-3.024c11.608,-1.798 23.192,-3.637 34.586,-6.696c13.742,-3.688 27.649,-6.769 41.504,-10.034c9.347,-2.202 18.736,-4.224 28.087,-6.411c5.529,-1.293 11.097,-1.952 16.781,-1.804c5.49,0.144 11.045,0.677 16.463,0.073c9.632,-1.075 19.262,-0.619 28.89,-0.898c0.639,-0.019 1.275,-0.17 1.913,-0.26c0.017,-0.174 0.034,-0.347 0.051,-0.521" id="path42"/>
   </g>
   <g transform="matrix(0.6084426886717856,0,0,-0.6084426886717856,-12.912809380568433,483.8648055451647) " stroke="null" id="g44">
    <path fill="#FFFFFF" fill-rule="nonzero" d="m700.592806,649.744051c-3.961,3.669 -4.91,8.347 -4.747,13.771c2.793,-2.17 4.515,-6.966 4.747,-13.771" id="path46"/>
   </g>
  </g>
 </g>
</svg>