<svg version="1.1" baseProfile="tiny"
	 xmlns="http://www.w3.org/2000/svg" xmlns:xlink="http://www.w3.org/1999/xlink" xmlns:a="http://ns.adobe.com/AdobeSVGViewerExtensions/3.0/"
	 x="0px" y="0px" width="283.2px" height="299.9px" viewBox="0 0 283.2 299.9" xml:space="preserve">
<defs>
</defs>
<path fill="#FFFFFF" d="M17.5,180.8c0,0,44,73.9,57.6,102.1C156.8,130.1,265.7,12.8,265.7,12.8"/>
<path d="M277.6,0c7.1,6.6,7.5,17.6,0.9,24.7c-1.1,1.2-108.4,117.5-188,266.4c-3,5.7-29.8,12.4-32.7,6.5
	C44.7,270.5,2.9,190.5,2.5,189.7c-4.9-8.3-2.2-19,6.1-24c8.3-4.9,19-2.2,24,6.1c1.3,2.3,25,42.1,42.9,74.3
	C154.5,107.4,248.6,5.5,252.8,0.9"/>
</svg>